<svg width="100%" height="100%" viewBox="242 97 750 830" fill="none" xmlns="http://www.w3.org/2000/svg">
  <g opacity="0.03">
    <path fill-rule="evenodd" clip-rule="evenodd" d="M991.49 276.09L560.586 105.328L432.807 208.784L581.585 267.743L439.776 380.324L588.845 439.277L730.554 326.778L862.108 378.911L991.49 276.09Z" fill="white"/>
    <path fill-rule="evenodd" clip-rule="evenodd" d="M581.488 214.301L286.305 97.3232L242.023 133.18L536.646 249.935L581.488 214.301Z" fill="white"/>
    <path fill-rule="evenodd" clip-rule="evenodd" d="M215.685 202.673L282.154 664.004L434.596 723.079L411.644 563.797L578.905 630.492L555.806 470.959L388.666 404.312L368.376 263.467L215.685 202.673Z" fill="white"/>
    <path fill-rule="evenodd" clip-rule="evenodd" d="M365.658 590.838L411.193 906.862L464.025 927.337L418.579 611.908L365.658 590.838Z" fill="white"/>
    <path fill-rule="evenodd" clip-rule="evenodd" d="M541.714 917.908L906.147 627.341L881.485 464.807L755.657 565.133L730.209 385.859L604.24 486.436L629.666 665.584L518.404 754.293L541.714 917.908Z" fill="white"/>
    <path fill-rule="evenodd" clip-rule="evenodd" d="M801.741 642.276L1051.39 443.232L1042.84 386.901L793.663 585.571L801.741 642.276Z" fill="white"/>
  </g>
</svg>

